<?xml version="1.0"?>
<svg xmlns="http://www.w3.org/2000/svg" height="512px" viewBox="0 -21 512 512" width="512px" class=""><g><path d="m476.347656 91.121094h-95.46875v-53.082032c0-20.972656-17.105468-38.039062-38.128906-38.039062h-175.5c-21.023438 0-38.128906 17.066406-38.128906 38.039062v53.082032h-93.46875c-19.660156 0-35.652344 15.996094-35.652344 35.652344v307.574218c0 19.660156 15.992188 35.652344 35.652344 35.652344h440.695312c19.660156 0 35.652344-15.992188 35.652344-35.652344v-307.574218c0-19.65625-15.992188-35.652344-35.652344-35.652344zm-317.226562-53.082032c0-4.433593 3.644531-8.039062 8.128906-8.039062h175.5c4.480469 0 8.128906 3.605469 8.128906 8.039062v53.082032h-191.757812zm-123.46875 83.082032h440.695312c3.117188 0 5.652344 2.535156 5.652344 5.652344v103.027343h-55.707031v-15.074219c0-15.894531-12.929688-28.824218-28.820313-28.824218h-45.34375c-15.894531 0-28.820312 12.929687-28.820312 28.824218v15.074219h-136.617188v-15.074219c0-15.894531-12.929687-28.824218-28.820312-28.824218h-45.34375c-15.890625 0-28.820313 12.929687-28.820313 28.824218v15.074219h-53.707031v-103.027343c0-3.117188 2.535156-5.652344 5.652344-5.652344zm317.65625 94.78125h42.984375v77.707031h-42.984375zm-239.601563 0h42.984375v77.707031h-42.984375zm362.640625 224.097656h-440.695312c-3.117188 0-5.652344-2.535156-5.652344-5.652344v-174.546875h53.707031v34.988281c0 15.890626 12.929688 28.820313 28.820313 28.820313h45.34375c15.894531 0 28.820312-12.929687 28.820312-28.820313v-34.988281h136.613282v34.988281c0 15.890626 12.929687 28.820313 28.824218 28.820313h45.34375c15.890625 0 28.820313-12.929687 28.820313-28.820313v-34.988281h55.707031v174.546875c0 3.117188-2.535156 5.652344-5.652344 5.652344zm0 0" data-original="#000000" class="active-path" data-old_color="#F9F8F8" fill="#FCFAFA"/></g> </svg>
