<?xml version="1.0"?>
<svg xmlns="http://www.w3.org/2000/svg" xmlns:xlink="http://www.w3.org/1999/xlink" version="1.1" id="Capa_1" x="0px" y="0px" viewBox="0 0 313.232 313.232" style="enable-background:new 0 0 313.232 313.232;" xml:space="preserve" width="512px" height="512px" class=""><g><path d="M128.488,230.424c0,4.971-4.029,9-9,9s-9-4.029-9-9c0-15.264-12.417-27.683-27.68-27.683c-4.971,0-9-4.029-9-9s4.029-9,9-9  C107.995,184.741,128.488,205.234,128.488,230.424z M313.231,156.615c0,86.359-70.257,156.617-156.615,156.617  c-14.587,0-29.016-2.007-42.938-5.967c-9.544,3.848-19.965,5.967-30.871,5.967c-45.66,0-82.807-37.147-82.807-82.808  c0-10.905,2.118-21.323,5.966-30.867c-3.96-13.916-5.966-28.345-5.966-42.942C0.001,70.257,70.258,0,156.616,0  C242.974,0,313.231,70.257,313.231,156.615z M147.616,230.424c0-35.736-29.073-64.809-64.808-64.809  c-35.734,0-64.807,29.073-64.807,64.809c0,35.735,29.072,64.808,64.807,64.808C118.543,295.232,147.616,266.159,147.616,230.424z   M295.231,156.615C295.231,80.182,233.048,18,156.616,18S18.001,80.182,18.001,156.615c0,6.886,0.503,13.729,1.503,20.481  c15.202-18.017,37.94-29.481,63.303-29.481c45.661,0,82.808,37.148,82.808,82.809c0,25.364-11.463,48.101-29.479,63.303  c6.754,1.001,13.596,1.505,20.479,1.505C233.048,295.232,295.231,233.049,295.231,156.615z M156.616,42.791c-4.971,0-9,4.03-9,9  c0,4.971,4.029,9,9,9c52.838,0,95.825,42.986,95.825,95.824c0,4.971,4.029,9,9,9s9-4.029,9-9  C270.44,93.852,219.379,42.791,156.616,42.791z" data-original="#000000" class="active-path" data-old_color="#ffa800" fill="#ffa800"/></g> </svg>
