<?xml version="1.0"?>
<svg xmlns="http://www.w3.org/2000/svg" height="512px" viewBox="-13 0 512 512" width="512px"><g><path d="m280.5 250.171875c1.386719-4.191406 3.316406-8.183594 5.734375-11.878906 3.757813 1.535156 8.078125.207031 10.328125-3.171875 2.25-3.382813 1.804688-7.878906-1.0625-10.753906-3.226562-3.433594-8.019531-4.914063-12.621094-3.898438-9.890625 2.335938-15.878906 16.210938-18.566406 24.300781-1.492188 4.476563.925781 9.316407 5.40625 10.808594 4.476562 1.492187 9.3125-.929687 10.804688-5.40625zm0 0" data-original="#000000" class="active-path" data-old_color="#91497f" fill="#91497f"/><path d="m445.910156 300.039062c21.101563-43.929687 45.011719-93.71875 39.746094-130.558593-9.035156-63.308594-46.546875-169.480469-196.1875-169.480469-114.363281 0-161.671875 16.027344-177.570312 23.535156-55.363282 7.59375-72.578126 19.5-74.351563 20.839844-.957031.714844-1.75 1.625-2.328125 2.667969-16.035156 28.902343-19.320312 51.738281-9.765625 67.976562 7.671875 11.433594 19.945313 18.953125 33.613281 20.59375-30.386718 44.925781-36.761718 98.679688-15.503906 141.269531 2.089844 4.171876-14.371094 21.953126-20.566406 28.644532-12.339844 13.335937-22.996094 24.847656-22.996094 35.804687 0 19.125 26.273438 24.003907 41.710938 25.21875-.625 4.195313-2.378907 8.140625-5.078126 11.417969-3.683593 3.429688-5.441406 8.453125-4.699218 13.429688 1.082031 4.933593 3.890625 9.320312 7.917968 12.375-2.449218 7.25-.359374 15.257812 5.316407 20.394531 4.445312 4.453125 4.019531 7.40625 2.515625 14.25-2.902344 13.234375-3.292969 27.144531 25.941406 38.84375 26.101562 9.34375 54.796875 8.285156 80.136719-2.953125l.351562 29.261718c.054688 4.671876 3.859375 8.429688 8.53125 8.429688h255.316407c4.714843 0 8.535156-3.820312 8.535156-8.535156 0-.730469-.089844-1.457032-.273438-2.164063-.253906-1.390625-1.78125-10.726562-8.839844-67.148437-1.96875-14.59375-3.019531-29.292969-3.148437-44.015625 2.304687-4.539063 3.421875-9.585938 3.242187-14.671875 0-16.210938 13.804688-44.976563 28.433594-75.425782zm22.851563-128.160156c4.53125 31.71875-18.203125 79-38.238281 120.8125-16.152344 33.648438-30.113282 62.703125-30.113282 82.773438 0 4.695312-1.074218 6.929687-1.800781 7.289062-1.519531.726563-7.519531.058594-16.488281-6.828125-14.503906-11.152343-28.054688-32.425781-24.546875-49.988281 8.359375-41.8125-12.640625-56.140625-20.167969-59.851562 8.636719-25.984376 6.238281-49.902344-7.140625-66.621094-12.46875-15.578125-25.789063-22.996094-39.550781-22.082032-8.667969.832032-16.820313 4.496094-23.195313 10.425782-1.300781-.324219-2.53125-.882813-3.632812-1.644532-4.601563-3.148437-12.957031-12.800781-17.171875-42.308593-1.585938-14.492188-9.578125-27.511719-21.785156-35.480469-30.214844-19.851562-80.996094-8.304688-90-6.027344-4.113282-.246094-20.589844-1.902344-27.164063-13.0625-5.972656-10.242187-2.925781-27.152344 8.894531-49.074218 7.6875-4.191407 49.21875-23.144532 172.808594-23.144532 129.910156 0 169.207031 84.179688 179.292969 154.8125zm-428.59375-65.511718c-5.976563-10.238282-2.9375-27.160157 8.898437-49.082032 14.921875-7.015625 30.820313-11.726562 47.15625-13.976562-10.042968 22.621094-11.195312 41-3.15625 54.613281 4.40625 7.21875 10.972656 12.875 18.769532 16.160156-12.300782-.011719-24.570313 1.183594-36.640626 3.566407-3.625.742187-6.332031 1.382812-7.800781 1.75-4.101562-.203126-20.640625-1.835938-27.226562-13.03125zm39.804687 355.039062c-18.257812-7.296875-17.433594-11.09375-15.613281-19.335938 3.625-10.527343.851563-22.203124-7.125-29.96875-.957031-.957031-2.398437-2.398437 0-5 1.933594-1.9375 2.824219-4.683593 2.390625-7.386718-.433594-2.707032-2.140625-5.035156-4.585938-6.269532-2.085937-1.070312-3.992187-2.460937-5.648437-4.121093 6.78125-8.875 10.421875-19.753907 10.34375-30.925781 0-4.710938-3.820313-8.53125-8.535156-8.53125-17.578125 0-34.132813-4.832032-34.132813-8.535157 0-4.265625 11.554688-16.75 18.457032-24.207031 15.078124-16.300781 30.679687-33.144531 23.3125-47.871094-20.273438-40.613281-11.269532-93.46875 22.742187-135.398437 12.203125-2.28125 24.636719-3.101563 37.035156-2.441407-23.382812 42.042969-26.726562 89.804688-7.476562 128.375 2.09375 4.171876-14.367188 21.957032-20.5625 28.644532-12.339844 13.339844-23 24.851562-23 35.839844 0 19.125 26.273437 24.007812 41.710937 25.21875-.632812 4.199218-2.40625 8.148437-5.117187 11.417968-3.683594 3.429688-5.441407 8.453125-4.703125 13.429688 1.082031 4.933594 3.890625 9.324218 7.917968 12.375-2.445312 7.25-.359374 15.261718 5.316407 20.394531 4.445312 4.453125 4.019531 7.40625 2.519531 14.25-2.910156 13.234375-3.296875 27.144531 25.941406 38.84375l.757813.265625c-19.867188 7.734375-41.851563 8.066406-61.945313.9375zm90.761719 5.121094c17.332031.597656 34.585937-2.574219 50.570313-9.304688l.316406 37.710938h-50.542969zm67.960937 28.40625-.445312-51.277344c-.027344-3.058594-1.691406-5.867188-4.355469-7.363281-2.667969-1.496094-5.929687-1.449219-8.554687.117187-.394532.230469-39.714844 23.167969-77.78125 7.929688-18.261719-7.296875-17.433594-11.09375-15.625-19.335938 3.636718-10.527344.863281-22.203125-7.117188-29.96875-.953125-.957031-2.398437-2.398437 0-5.003906 1.9375-1.933594 2.824219-4.683594 2.390625-7.386719-.433593-2.703125-2.136719-5.03125-4.582031-6.265625-2.085938-1.070312-3.992188-2.460937-5.648438-4.121094 6.78125-8.875 10.417969-19.753906 10.339844-30.925781 0-4.710937-3.820312-8.53125-8.53125-8.53125-17.578125 0-34.132812-4.832031-34.132812-8.535156 0-4.265625 11.550781-16.75 18.457031-24.207031 15.078125-16.300782 30.71875-33.144532 23.304687-47.871094-18.210937-36.492188-12.800781-82.851562 13.132813-122.308594.117187-.164062.21875-.316406.332031-.488281 2.84375-4.3125 5.953125-8.53125 9.328125-12.65625 18.550781-3.316406 48.867188-5.5625 66.351563 5.921875 8.089844 5.308594 13.335937 13.996094 14.269531 23.621094 4.027344 28.246094 12.621094 46.644531 25.53125 54.699218.28125.171876.554687.273438.855469.4375-1.773438 3.882813-.363282 8.476563 3.285156 10.699219 4.039062 2.425781 9.277344 1.121094 11.707031-2.917969 1.023438-1.59375 2.164063-3.109374 3.414063-4.53125.519531-.121093.9375-.230468 1.089844-.28125 2.5625-.859374 4.527343-2.941406 5.230468-5.546874 3.148438-2.484376 6.9375-4.019532 10.925782-4.429688 7.796874-.519531 16.304687 4.761719 25.085937 15.726562 15.429687 19.292969 6.136719 47.199219 1.425781 58.308594-9.171875 21.589844-22.921875 34.347656-28.917968 34.910156-.566407.050782-.777344.066407-1.417969-.851562-2.617188-3.921875-7.914063-4.980469-11.835938-2.367188-3.921875 2.617188-4.980469 7.917969-2.363281 11.835938 3.269531 5.316406 9.066406 8.550781 15.308594 8.535156.621094 0 1.253906 0 1.894531-.085937 15.207031-1.425781 30.515625-19.839844 39.875-38.460938 4.207031 2.398438 15.710937 11.777344 9.925781 40.707031-5.121094 25.683594 12.40625 52.667969 30.890625 66.867188 7.152344 6.171875 16.105469 9.878906 25.53125 10.5625h.078125c.390625 10.554688 1.390625 22.324219 3.113282 36.242188 3.703124 29.652343 5.972656 47.691406 7.816406 58.675781zm0 0" data-original="#000000" class="active-path" data-old_color="#91497f" fill="#91497f"/></g> </svg>
