<?xml version="1.0"?>
<svg xmlns="http://www.w3.org/2000/svg" height="512px" viewBox="-40 0 512 512" width="512px"><g><g fill-rule="evenodd"><path d="m222.800781 159.601562c0 8.28125-6.714843 15-15 15-8.285156 0-15-6.71875-15-15 0-8.285156 6.714844-15 15-15 8.285157 0 15 6.714844 15 15zm0 0" data-original="#000000" class="active-path" data-old_color="#91497f" fill="#91497f"/><path d="m287.066406 159.601562c0 8.28125-6.714844 15-15 15s-15-6.71875-15-15c0-8.285156 6.714844-15 15-15s15 6.714844 15 15zm0 0" data-original="#000000" class="active-path" data-old_color="#91497f" fill="#91497f"/><path d="m296.453125 211.386719c-34.332031-22.890625-78.707031-22.890625-113.039063 0-6.894531 4.59375-8.757812 13.910156-4.160156 20.800781 4.597656 6.894531 13.910156 8.753906 20.800782 4.160156 24.226562-16.148437 55.53125-16.152344 79.757812 0 8.367188 5.574219 17.316406 1.066406 20.800781-4.160156 4.597657-6.894531 2.734375-16.207031-4.160156-20.800781zm0 0" data-original="#000000" class="active-path" data-old_color="#91497f" fill="#91497f"/><path d="m239.933594 64.265625c-70.285156 0-127.464844 57.183594-127.464844 127.46875s57.179688 127.464844 127.464844 127.464844 127.464844-57.179688 127.464844-127.464844-57.179688-127.46875-127.464844-127.46875zm0 224.933594c-53.742188 0-97.464844-43.722657-97.464844-97.464844 0-53.746094 43.722656-97.46875 97.464844-97.46875 53.742187 0 97.464844 43.722656 97.464844 97.46875 0 53.742187-43.722657 97.464844-97.464844 97.464844zm0 0" data-original="#000000" class="active-path" data-old_color="#91497f" fill="#91497f"/><path d="m431.664062 209.632812c0-191.261718-167.960937-209.632812-196.40625-209.632812-108.625 0-179.023437 94.339844-179.023437 167.898438v26.722656c-8.914063 11.457031-34.382813 44.203125-46.503906 59.789062-6.273438 8.066406-9.730469 18.136719-9.730469 28.355469 0 19.183594 11.507812 36.1875 29.328125 43.324219l13.988281 5.59375 22.660156 63.445312c11.234376 31.464844 41.234376 52.605469 74.648438 52.605469h23.328125l13.226563 52.90625c1.671874 6.675781 7.671874 11.359375 14.554687 11.359375h192.796875c4.707031 0 9.144531-2.210938 11.976562-5.96875 2.835938-3.753906 3.742188-8.625 2.449219-13.152344l-30.636719-107.230468 49.746094-111.933594c9.023438-20.308594 13.597656-41.867188 13.597656-64.082032zm-41.011718 51.898438-51.960938 116.910156c-1.425781 3.214844-1.679687 6.828125-.714844 10.210938l26.671876 93.347656h-161.203126l-13.226562-52.90625c-1.667969-6.675781-7.667969-11.359375-14.550781-11.359375h-35.042969c-20.769531 0-39.414062-13.140625-46.398438-32.695313l-24.933593-69.816406c-1.445313-4.050781-4.5625-7.289062-8.558594-8.882812l-20.261719-8.105469c-10.390625-4.160156-13.640625-16.953125-7.0625-25.402344 12.648438-16.269531 39.820313-51.203125 47.570313-61.167969 3.386719-4.359374 5.253906-9.796874 5.253906-15.3125v-28.453124c0-40.292969 42.6875-137.898438 149.039063-137.898438 23.5625 0 166.390624 14.332031 166.390624 179.632812 0 17.992188-3.703124 35.453126-11.011718 51.898438zm0 0" data-original="#000000" class="active-path" data-old_color="#91497f" fill="#91497f"/></g></g> </svg>
