<?xml version="1.0"?>
<svg xmlns="http://www.w3.org/2000/svg" xmlns:xlink="http://www.w3.org/1999/xlink" version="1.1" id="Capa_1" x="0px" y="0px" viewBox="0 0 612 612" style="enable-background:new 0 0 612 612;" xml:space="preserve" width="512px" height="512px" class=""><g><g>
	<g>
		<path d="M506.692,353.532c0,0-126.566-127.275-128.187-128.71c17.644-17.836,28.639-42.244,28.965-69.179    c12.995-3.075,22.491-14.668,22.491-28.583c0-13.912-9.503-25.502-22.503-28.572c-0.043-2.574-0.173-5.126-0.408-7.649h7.689    V78.614h-9.602c-1.279-5.806-3.052-11.428-5.292-16.811h14.894V49.578h-21.01C376.31,19.947,344.112,0,307.323,0    c-36.788,0-68.988,19.947-86.407,49.578h-21.657v12.226H214.8c-2.24,5.382-4.013,11.005-5.292,16.811h-10.248V90.84h8.335    c-0.235,2.525-0.365,5.077-0.408,7.652c-13.002,3.078-22.508,14.668-22.508,28.567c0,13.901,9.5,25.494,22.496,28.58    c0.326,26.937,11.321,51.346,28.966,69.183c-5.384,4.771-127.504,128.71-127.504,128.71c-15.044,15.044-15.046,39.536,0,54.599    c0.998,0.998,2.04,1.926,3.116,2.791c-10.475,5.091-17.729,15.807-17.729,28.213v13.238h12.226v-13.238    c0-10.563,8.595-19.156,19.158-19.156s19.158,8.593,19.158,19.156V608.3h12.226V439.135c0-8.404-3.339-16.03-8.737-21.669    c5.552-1.826,10.773-4.93,15.183-9.334l36.727-36.727v82.363h31.008V612h152.702V453.768h31.023v-83.035l37.399,37.398    c7.522,7.522,17.405,11.283,27.291,11.283s19.777-3.761,27.31-11.285C521.738,393.068,521.738,368.576,506.692,353.532z     M307.323,242.368c-44.651,0-81.611-33.453-87.197-76.609c11.417,5.43,20.721,14.68,26.199,26.31l5.522,11.722l5.535-11.715    c9.092-19.241,28.693-31.673,49.935-31.673c21.255,0,40.856,12.431,49.935,31.67l5.529,11.715l5.528-11.715    c5.489-11.634,14.798-20.886,26.209-26.315C388.935,208.913,351.975,242.368,307.323,242.368z M292.034,253.428l-27.181,22.609    l-4.487-33.164C270.089,248.053,280.75,251.692,292.034,253.428z M354.557,242.73l-4.505,33.302l-26.993-22.684    C334.284,251.569,344.891,247.92,354.557,242.73z M417.736,127.061c0,7.053-4.177,13.077-10.235,15.723v-31.431    C413.56,113.994,417.736,120.014,417.736,127.061z M222.053,78.614c1.482-5.858,3.552-11.483,6.145-16.811h24.55V49.578h-17.297    c15.936-22.569,42.202-37.352,71.872-37.352c29.669,0,55.935,14.783,71.873,37.352h-17.943v12.226h25.195    c2.593,5.327,4.663,10.953,6.145,16.811h-31.34V90.84h33.523c0.326,3.07,0.501,6.183,0.501,9.338v52.038    c-13.209,4.777-24.559,13.554-32.503,25.054c-12.466-17.957-33.219-29.095-55.455-29.095c-22.225,0-42.977,11.136-55.449,29.095    c-7.936-11.495-19.285-20.272-32.5-25.051v-52.04c0-3.154,0.176-6.269,0.501-9.338h32.877V78.616h-30.696V78.614z     M196.906,127.061c0-7.038,4.178-13.056,10.239-15.703v31.418C201.084,140.126,196.906,134.103,196.906,127.061z M154.593,399.483    c-10.294,10.282-27.031,10.284-37.309,0.005c-10.284-10.293-10.284-27.03-0.003-37.312l10.308-10.308l38.042,36.577    L154.593,399.483z M174.279,379.798l-38.042-36.577l67.923-67.923c-2.774,9.608-4.198,19.639-4.198,29.892v48.924L174.279,379.798    z M212.188,305.191c0-20.674,6.519-40.338,18.852-56.861c4.184-5.607,9.007-10.711,14.326-15.281    c0.497,0.393,0.989,0.792,1.493,1.174l8.852,65.462l45.5-38.25V441.54H212.19V305.191H212.188z M301.208,453.768v122.747    c-7.455-7.363-17.705-11.888-29.003-11.888c-11.301,0-21.554,4.527-29.009,11.893V453.768L301.208,453.768L301.208,453.768z     M300.502,599.774h-56.594c2.887-12.657,14.468-22.922,28.297-22.922S297.615,587.117,300.502,599.774z M314.145,599.774    c2.887-12.657,14.468-22.922,28.297-22.922s25.41,10.265,28.297,22.922H314.145z M371.446,576.516    c-7.455-7.365-17.705-11.89-29.004-11.89c-11.301,0-21.553,4.527-29.008,11.893V453.768h58.012V576.516z M402.469,441.542h-89.032    V261.234l45.751,38.46l8.888-65.697c0.414-0.316,0.819-0.643,1.229-0.966c1.82,1.563,10.025,9.885,12.145,12.533    c13.751,17.052,21.019,37.671,21.019,59.629V441.542z M410.11,274.239l67.336,67.336l-36.577,38.042l-26.176-26.174v-48.253    C414.695,294.658,413.119,284.223,410.11,274.239z M498.05,399.483c-10.294,10.284-27.031,10.282-37.312,0.003l-11.222-11.222    l36.577-38.042l11.954,11.954C508.327,372.458,508.327,389.195,498.05,399.483z" data-original="#000000" class="active-path" data-old_color="#ed9d04" fill="#ed9d04"/>
		<circle cx="267.011" cy="138.697" r="14.44" data-original="#000000" class="active-path" data-old_color="#ed9d04" fill="#ed9d04"/>
		<circle cx="347.636" cy="138.697" r="14.44" data-original="#000000" class="active-path" data-old_color="#ed9d04" fill="#ed9d04"/>
		<rect x="341.385" y="315.491" width="42.791" height="12.226" data-original="#000000" class="active-path" data-old_color="#ed9d04" fill="#ed9d04"/>
	</g>
</g></g> </svg>
