<?xml version="1.0"?>
<svg xmlns="http://www.w3.org/2000/svg" viewBox="0 0 512 512.00145" width="512px" height="512px" class=""><g><path d="m235.808594 448.058594c2.632812 0 5.203125-1.058594 7.070312-2.929688 1.859375-1.859375 2.929688-4.4375 2.929688-7.070312 0-2.628906-1.070313-5.207032-2.929688-7.066406-1.859375-1.863282-4.4375-2.933594-7.070312-2.933594-2.640625 0-5.21875 1.070312-7.070313 2.933594-1.867187 1.859374-2.929687 4.4375-2.929687 7.066406 0 2.632812 1.0625 5.210937 2.929687 7.070312 1.863281 1.871094 4.441407 2.929688 7.070313 2.929688zm0 0" data-original="#000000" class="active-path" data-old_color="#ffa800" fill="#ffa800"/><path d="m501.96875 492h-194.308594l-16.0625-20.304688c-1.449218-1.832031-2.25-4.128906-2.25-6.464843v-108.300781c0-14.023438-6.824218-27.238282-18.261718-35.355469l-24.464844-17.367188 38.882812-58.125c11.136719-16.648437 14.511719-37.527343 9.375-56.765625l76.925782-119.789062c.152343-.238282.296874-.488282.429687-.738282 6.238281-11.832031 7.492187-25.378906 3.539063-38.15625-3.957032-12.769531-12.648438-23.242187-24.480469-29.476562-4.652344-2.453125-10.414063-.882812-13.171875 3.597656l-42.589844 69.082032c-1.675781-1.152344-3.421875-2.210938-5.257812-3.152344-2.753907-1.414063-5.582032-2.519532-8.449219-3.351563-.070313-.683593-.210938-1.367187-.433594-2.042969l-.902344-2.773437c-5.804687-17.828125-25.027343-27.609375-42.855469-21.808594-8.636718 2.8125-15.660156 8.816407-19.777343 16.910157-4.121094 8.09375-4.839844 17.308593-2.027344 25.941406l3.9375 12.101562c.476563 1.464844 1.261719 2.734375 2.253906 3.78125l-2.609375 5.085938c-5.804687 11.308594-6.859375 24.203125-2.964844 36.304687 1.75 5.441407 4.410157 10.421875 7.832032 14.792969-9.730469 3.808594-18.25 10.679688-24.089844 20.023438l-45.730469 73.199218c-.523437.503906-9.183593 13.589844-9.183593 13.589844-11.242188 17.199219-14.257813 38.335938-8.28125 57.992188 5.976562 19.65625 20.25 35.53125 39.164062 43.558593l49.648438 21.074219v19.9375c0 5.523438 4.476562 10 10 10 5.523437 0 10-4.476562 10-10v-26.554688c0-4.015624-2.398438-7.640624-6.09375-9.207031l-55.742188-23.660156c-13.445312-5.707031-23.59375-16.992187-27.84375-30.96875s-2.101562-29.003906 5.890625-41.230469l2.097656-3.207031 95.398438 67.710937c6.160156 4.375 9.835937 11.492188 9.835937 19.046876v108.304687c0 6.820313 2.332032 13.519531 6.5625 18.871094l6.246094 7.894531h-20.351562c-8.820313 0-16-7.175781-16-16 0-5.519531-4.476563-10-10-10-5.523438 0-10 4.480469-10 10 0 5.746094 1.359374 11.179688 3.765624 16h-219.570312c-5.523438 0-10 4.480469-10 10 0 5.523438 4.476562 10 10 10h491.96875c5.523438 0 10-4.476562 10-10 0-5.519531-4.476562-10-10-10zm-253.617188-341.632812c-6.148437-3.410157-10.703124-8.933594-12.867187-15.660157-2.257813-7.019531-1.648437-14.492187 1.71875-21.050781l6.789063-13.230469c3.367187-6.558593 9.085937-11.410156 16.101562-13.667969 7.015625-2.257812 14.488281-1.644531 21.050781 1.71875 1.367188.703126 2.644531 1.53125 3.859375 2.433594zm-12.671874-83.679688c1.695312-3.332031 4.589843-5.808594 8.144531-6.964844 6.445312-2.097656 13.328125.753906 16.53125 6.445313-9.320313 1.636719-18.082031 6.035156-25.003907 12.761719l-.507812-1.5625c-1.15625-3.554688-.859375-7.347657.835938-10.679688zm-18.53125 119.558594c6.871093-10.992188 19.933593-16.277344 32.515624-13.15625 3.578126.886718 7.289063-.273438 9.730469-2.902344 1.183594-1.066406 2.125-2.425781 2.695313-3.996094l87.386718-141.753906c3.292969 3.367188 5.757813 7.488281 7.191407 12.113281 2.335937 7.542969 1.644531 15.535157-1.941407 22.554688l-79.179687 123.296875c-1.65625 2.582031-2.039063 5.785156-1.03125 8.683594 5.074219 14.613281 2.96875 31.019531-5.632813 43.875l-38.578124 57.667968-55.160157-39.152344zm0 0" data-original="#000000" class="active-path" data-old_color="#ffa800" fill="#ffa800"/></g> </svg>
