<?xml version="1.0"?>
<svg xmlns="http://www.w3.org/2000/svg" height="512px" viewBox="0 0 512.00017 512" width="512px"><g><path d="m278.589844 174.585938c13.617187-4.503907 25.804687-13.097657 34.660156-30.359376 10.640625-20.734374 10.253906-39.460937-1.210938-58.929687-9.683593-16.433594-27.148437-33.511719-51.324218-57.148437-15.929688-15.574219-19.398438-19.050782-28.492188-28.148438h-126.210937v.59375c-12.648438.128906-25.089844 4.472656-35.136719 12.613281-8.84375 7.160157-15.253906 16.71875-18.574219 27.726563l-50.367187 170.71875c-6.339844 21.027344 3.316406 43.417968 22.910156 53.210937l37.457031 18.898438c-34.417969 67.871093-35.171875 148.992187-.625 218.085937l5.066407 10.136719h257.289062c25.242188-37.859375 66.972656-86.832031 66.972656-164.589844 0-88.035156-41.191406-134.4375-112.414062-172.808593zm-247.910156 45.640624 50.367187-170.71875c1.550781-5.140624 4.5625-9.632812 8.710937-12.992187 6.695313-5.421875 15.636719-7.289063 23.921876-4.984375 15.617187 4.335938 23.6875 21.375 17.382812 36.082031l-65.757812 151.257813 164.238281 82.121094c18.742187 0 42.105469 1.21875 59.753906 10.355468l-15.085937 5.574219c-22.257813 8.230469-40.480469 13.105469-51.964844 13.941406l-183.9375-92.808593c-6.546875-3.269532-9.765625-10.734376-7.628906-17.828126zm277.394531 261.757813h-222.65625c-27.109375-59.121094-25.445313-127.320313 3.675781-184.703125l126.269531 63.707031c22.886719 0 46.710938-7.597656 69.25-15.929687l51.191407-18.925782-5.75-15.394531c-1.496094-4.003906-16.691407-38.667969-93.382813-39.722656l-132.519531-66.257813 54.453125-125.253906c6.835937-15.957031 5.996093-34.199218-2.378907-49.503906h63.582032c7.144531 7.097656 13.875 13.679688 19.933594 19.601562 49.941406 48.828126 57.941406 59.25 46.816406 80.933594-8.566406 16.695313-20.21875 18.015625-48.09375 19.628906-8.457032.492188-7.664063-.355468-24.457032.832032v23.828125c11.457032 6.054687 12.539063 6.652343 26.539063 13.796875 61.945313 31.613281 120.457031 61.46875 120.457031 158.777344 0 62.613281-32.085937 104.453124-52.929687 134.585937zm0 0" data-original="#000000" class="active-path" data-old_color="#91497f" fill="#91497f"/><path d="m452 330.03125h60v30h-60zm0 0" data-original="#000000" class="active-path" data-old_color="#91497f" fill="#91497f"/><path d="m461.851562 238.964844 21.214844 21.210937-42.425781 42.425781-21.210937-21.214843zm0 0" data-original="#000000" class="active-path" data-old_color="#91497f" fill="#91497f"/><path d="m461.851562 451.097656-42.425781-42.421875 21.214844-21.214843 42.421875 42.425781zm0 0" data-original="#000000" class="active-path" data-old_color="#91497f" fill="#91497f"/></g> </svg>
