<?xml version="1.0"?>
<svg xmlns="http://www.w3.org/2000/svg" xmlns:xlink="http://www.w3.org/1999/xlink" version="1.1" id="Capa_1" x="0px" y="0px" width="512px" height="512px" viewBox="0 0 79.537 79.536" style="enable-background:new 0 0 79.537 79.536;" xml:space="preserve" class=""><g><g>
	<path d="M28.962,12.2c2.014-0.761,1.548-5.572,1.548-5.572C30.51,2.97,33.485,0,37.154,0   c3.658,0,6.639,2.97,6.639,6.628c0,3.674-2.98,6.648-6.639,6.648c-1.23,0-2.322-0.435-3.304-1.002   C31.103,12.472,27.716,12.668,28.962,12.2z M48.994,44.594c0.047,4.868-0.187,8.389-0.187,8.389h-8.43l-1.362,24.959   c0,0.87-0.699,1.595-1.595,1.595c-0.87,0-1.587-0.725-1.587-1.595l-1.367-24.959h-3.485l2.255-28.003l-4.714,19.729   c-0.228,0.979-1.103,1.646-2.074,1.646c-0.152,0-0.318-0.021-0.481-0.052c-1.139-0.27-1.856-1.413-1.592-2.553   c0,0,3.485-19.91,5.145-23.304v-0.01c0-0.005,0.005-0.005,0.005-0.005c1.654-3.399,1.882-5.445,7.99-5.445   c4.512,0,7.259,3.992,8.953,9.362c4.971,0.935,8.751,5.281,8.751,10.532C55.222,39.19,52.665,42.885,48.994,44.594z M52.359,33.51   c0-1.341-1.092-2.428-2.438-2.428c-1.108,0-1.885,0.812-2.186,1.841c-0.3-1.023-1.077-1.841-2.185-1.841   c-1.35,0-2.437,1.087-2.437,2.428c0,2.827,4.621,5.341,4.621,5.341S52.359,36.343,52.359,33.51z" data-original="#010002" class="active-path" data-old_color="#ed9d04" fill="#ed9d04"/>
</g></g> </svg>
