<?xml version="1.0"?>
<svg xmlns="http://www.w3.org/2000/svg" height="512px" viewBox="-94 0 512 512.0032" width="512px" class=""><g><path d="m106.847656 212.898438v3.007812c0 4.140625 3.359375 7.5 7.5 7.5 4.144532 0 7.5-3.359375 7.5-7.5v-3.007812c0-4.144532-3.355468-7.5-7.5-7.5-4.140625 0-7.5 3.355468-7.5 7.5zm0 0" data-original="#000000" class="active-path" data-old_color="#ed9d04" fill="#ed9d04"/><path d="m190.449219 212.898438v3.007812c0 4.140625 3.355469 7.5 7.5 7.5 4.140625 0 7.5-3.359375 7.5-7.5v-3.007812c0-4.144532-3.359375-7.5-7.5-7.5-4.144531 0-7.5 3.355468-7.5 7.5zm0 0" data-original="#000000" class="active-path" data-old_color="#ed9d04" fill="#ed9d04"/><path d="m138.257812 245.203125c-3.40625-2.363281-8.078124-1.515625-10.4375 1.890625-2.359374 3.402344-1.515624 8.078125 1.890626 10.4375 7.875 5.457031 17.015624 8.34375 26.4375 8.34375 9.417968 0 18.5625-2.886719 26.433593-8.34375 3.40625-2.359375 4.253907-7.035156 1.894531-10.4375-2.359374-3.402344-7.035156-4.25-10.4375-1.890625-5.355468 3.710937-11.539062 5.671875-17.890624 5.671875-6.351563 0-12.539063-1.960938-17.890626-5.671875zm0 0" data-original="#000000" class="active-path" data-old_color="#ed9d04" fill="#ed9d04"/><path d="m213.269531 195.652344c2.769531 0 5.433594-1.539063 6.738281-4.195313 1.824219-3.71875.289063-8.210937-3.429687-10.039062-12.84375-6.304688-25.867187-6.304688-38.710937 0-3.71875 1.824219-5.253907 6.320312-3.429688 10.039062s6.320312 5.253907 10.039062 3.429688c8.574219-4.210938 16.914063-4.210938 25.492188 0 1.0625.519531 2.1875.765625 3.300781.765625zm0 0" data-original="#000000" class="active-path" data-old_color="#ed9d04" fill="#ed9d04"/><path d="m134.429688 181.417969c-12.84375-6.304688-25.867188-6.304688-38.710938 0-3.71875 1.824219-5.253906 6.320312-3.429688 10.039062 1.828126 3.71875 6.320313 5.253907 10.039063 3.429688 8.578125-4.210938 16.917969-4.210938 25.492187 0 1.0625.519531 2.191407.765625 3.300782.765625 2.769531 0 5.433594-1.539063 6.738281-4.195313 1.824219-3.71875.289063-8.210937-3.429687-10.039062zm0 0" data-original="#000000" class="active-path" data-old_color="#ed9d04" fill="#ed9d04"/><path d="m322.242188 107.992188c2.953124-4.644532 3.125-8.601563.515624-11.761719-3.960937-4.792969-9.59375-2.566407-13.710937-.9375-1.324219.523437-2.695313 1.066406-4.078125 1.519531-1.757812.578125-3.488281.960938-5.1875 1.144531 14.445312-20.367187 22.988281-51.925781 19.78125-76.976562-.613281-4.808594-3.398438-8.898438-7.640625-11.226563-4.210937-2.304687-9.332031-2.457031-13.703125-.394531-19.40625 9.175781-59.097656 12.210937-100.390625-2.808594-52.890625-19.230469-108.785156 7.566407-137.40625 32.789063-11.574219-7.964844-30.816406-7.234375-42.511719-3.429688-4.394531 1.425782-7.695312 4.964844-8.828125 9.46875-1.144531 4.550782.109375 9.285156 3.355469 12.671875 5.664062 5.890625 8.652344 9.570313 10.222656 11.824219-5.203125 5.910156-9.261718 15.261719-11.683594 27.136719-5.394531 26.429687-2.765624 66.738281 19.890626 102.957031-4.125 5.039062-6.601563 11.480469-6.601563 18.484375v13.210937c0 16.128907 13.117187 29.253907 29.242187 29.253907h5.480469c1.574219 3.898437 3.433594 7.851562 5.582031 11.828125 1.355469 2.511718 3.9375 3.9375 6.605469 3.9375 1.203125 0 2.421875-.289063 3.554688-.898438 3.648437-1.96875 5.007812-6.519531 3.039062-10.164062-6.515625-12.078125-9.957031-23.578125-9.957031-33.261719v-42.542969c19.734375-5.183594 33.597656-21.074218 39.667969-45.148437 23.761719 26.859375 54.023437 33.023437 75.90625 26.246093 2.273437-.703124 4.078125-2.445312 4.863281-4.695312s.453125-4.738281-.894531-6.703125c-3.296875-4.824219-8.230469-15.746094-10.078125-26.960937 4.546875 2.851562 9.058594 5.453124 13.488281 7.789062 17.667969 9.332031 34.820313 14.886719 51.070313 16.550781 1.757812 6.574219 2.648437 13.371094 2.648437 20.269531v19.355469c-.003906.0625-.003906.128907-.003906.195313 0 .0625 0 .128906.003906.191406v35.453125c0 16.777344-10.726563 39.316406-27.988281 58.828125-2.769532 3.132812-5.609375 6.078125-8.476563 8.8125-.226562.191406-.441406.394531-.644531.609375-13.898438 13.089844-28.335938 21.117187-38.65625 21.117187h-25.140625c-10.296875 0-24.863281-8.15625-38.71875-21.179687-.167969-.175781-.34375-.34375-.527344-.503906-3.570312-3.390625-7.085937-7.101563-10.464843-11.082031-2.683594-3.15625-7.417969-3.539063-10.574219-.859376-3.15625 2.683594-3.539063 7.417969-.859375 10.574219 2.898437 3.410157 6.097656 6.867188 9.515625 10.234375v26.691406c0 5.5-3.246094 10.484376-8.273438 12.699219l-66.210937 29.183594c-7.945313 3.511719-13.785156 10.292969-16.214844 18.34375-.019531.050781-.035156.105469-.050781.15625-.792969 2.695313-1.199219 5.480469-1.199219 8.277344v57.433593c0 6.558594 3.140625 12.738282 8.253906 16.6875 1.113282.863282 2.328125 1.621094 3.621094 2.253907 42.183594 20.519531 92.070312 31.367187 144.269531 31.367187 52.210938 0 102.097657-10.847656 144.273438-31.371094 7.214843-3.515624 11.875-10.945312 11.875-18.933593v-18.960938c0-4.140625-3.359375-7.5-7.5-7.5s-7.5 3.359375-7.5 7.5v18.960938c0 2.328125-1.320313 4.414062-3.441407 5.449219-8.285156 4.027343-16.886718 7.667968-25.761718 10.902343v-40.117187c0-13.699219 10.527344-24.507813 29.203125-30.359375v5.160156c0 4.140625 3.359375 7.5 7.5 7.5s7.5-3.359375 7.5-7.5v-8.46875c0-11.578125-6.851563-22.089844-17.464844-26.785156l-66.207031-29.183594c-5.027344-2.210937-8.273438-7.195313-8.273438-12.695313v-26.652343c2.488282-2.464844 4.953125-5.074219 7.382813-7.820313 11.382812-12.867187 20.140625-26.792968 25.546875-40.214844h5.5c16.132812 0 29.253906-13.121093 29.253906-29.25v-13.210937c0-5.304687-1.421875-10.28125-3.902344-14.574219 4.152344-11.734375 6.25-24.179687 6.25-37.058594 0-7.449218-.71875-14.820312-2.136718-21.988281 15.285156-10.46875 26.800781-25.542969 34-36.839843zm-215.289063 227.609374v-13.796874c11.78125 8.710937 24.683594 14.921874 36.625 14.921874h25.140625c10.882812 0 23.695312-5.308593 36.628906-14.84375v13.71875c0 7.445313 2.863282 14.4375 7.742188 19.683594-15.265625 14.621094-35.613282 22.871094-56.941406 22.871094-21.328126 0-41.675782-8.25-56.941407-22.871094 4.882813-5.25 7.746094-12.238281 7.746094-19.683594zm-62.75 142.421876c-8.941406-3.253907-17.574219-6.898438-25.761719-10.882813-.597656-.289063-1.128906-.664063-1.585937-1.101563-1.167969-1.125-1.847657-2.671874-1.847657-4.339843v-54.125c18.671876 5.851562 29.195313 16.660156 29.195313 30.359375zm203.660156-104.851563 40.90625 18.03125c1.304688.578125 2.492188 1.332031 3.539063 2.234375-24.757813 7.988281-39.21875 24.148438-39.21875 44.5v45.125c-30.164063 9.175781-63.015625 13.9375-96.945313 13.9375-33.921875 0-66.773437-4.761719-96.9375-13.9375v-45.128906c0-20.347656-14.460937-36.507813-39.21875-44.5 1.046875-.894532 2.234375-1.652344 3.535157-2.226563l40.910156-18.035156c22.871094 27.171875 55.972656 42.636719 91.714844 42.636719 35.742187 0 68.84375-15.464844 91.714843-42.636719zm-21.820312-9.617187 7.429687 3.273437c-19.859375 21.707031-47.542968 33.980469-77.324218 33.980469s-57.464844-12.273438-77.324219-33.976563l7.429687-3.277343c18.292969 18.882812 43.460938 29.605468 69.894532 29.605468 26.433593 0 51.601562-10.726562 69.894531-29.605468zm-172.535157-117.640626c-7.851562 0-14.238281-6.390624-14.238281-14.25v-13.210937c0-7.617187 6.011719-13.859375 13.542969-14.222656v28.128906c0 4.3125.511719 8.855469 1.515625 13.554687zm219.523438-14.25c0 7.859376-6.390625 14.25-14.25 14.25h-.828125c1.007813-4.691406 1.53125-9.234374 1.53125-13.554687v-28.128906c4.121094.199219 7.789063 2.160156 10.265625 5.136719.097656.136718.203125.269531.316406.394531 1.859375 2.40625 2.96875 5.421875 2.96875 8.691406v13.210937zm-1.011719-39.28125c-3.78125-1.929687-8.035156-3.054687-12.535156-3.164062v-12.054688c0-6.84375-.738281-13.605468-2.195313-20.207031 5.757813-.679687 11.457032-2.1875 17.050782-4.511719.691406 4.71875 1.042968 9.527344 1.042968 14.375 0 8.808594-1.128906 17.371094-3.363281 25.5625zm4.050781-57.5625c-.074218.042969-.144531.082032-.214843.128907-9.027344 5.3125-18.34375 7.796875-27.699219 7.382812-.167969-.015625-.339844-.023437-.507812-.027343-15.53125-.828126-32.3125-5.949219-49.882813-15.230469-7.792969-4.105469-15.867187-9.121094-24-14.914063-2.140625-1.527344-4.925781-1.820312-7.339844-.769531-2.414062 1.046875-4.097656 3.285156-4.445312 5.890625-1.914063 14.445312 2.867187 30.28125 7.707031 40.964844-16.425781 1.128906-41.132812-5.65625-60.40625-36.152344-1.71875-2.722656-4.984375-4.042969-8.113281-3.28125-3.128907.761719-5.425781 3.4375-5.699219 6.648438-3.285156 38.308593-21.488281 48.761718-36.179688 50.78125-3.714843.511718-6.480468 3.683593-6.480468 7.429687v5.550781c-3.425782.082032-6.710938.753906-9.753906 1.921875-19.832032-32.375-21.925782-68.855469-17.378907-91.132812 2.679688-13.128907 7.113281-19.996094 10.097657-21.886719 2.507812-1.589844 3.84375-4.507812 3.402343-7.445312-.773437-5.1875-4.796875-11.230469-14.1875-21.199219 11.429688-2.855469 25.699219-.910157 28.996094 4.265625 1.222656 1.917968 3.25 3.179687 5.507813 3.425781 2.261718.246094 4.511718-.542969 6.121093-2.148437 10.03125-10.027344 29.085938-23.765626 52.476563-32.261719 18.355468-6.664063 46.199218-12.441407 74.617187-2.105469 45.574219 16.570312 89.050781 13.082031 111.980469 2.230469 3.179688 24.859375-8.136719 59.722656-24.21875 74.609375-1.839844 1.703125-2.707031 4.214844-2.308594 6.695312.398438 2.476563 2.007813 4.589844 4.289063 5.632813 5.632812 2.570312 11.667969 3.621093 17.808593 3.148437-6.46875 8.011719-14.617187 16.164063-24.1875 21.847656zm0 0" data-original="#000000" class="active-path" data-old_color="#ed9d04" fill="#ed9d04"/><path d="m178.964844 482.554688c10.886718 0 19.75-8.859376 19.75-19.75v-10.167969c0-10.890625-8.859375-19.753907-19.75-19.753907s-19.75 8.863282-19.75 19.753907v10.167969c0 10.890624 8.859375 19.75 19.75 19.75zm-4.75-29.917969c0-2.621094 2.128906-4.75 4.75-4.75 2.617187 0 4.75 2.128906 4.75 4.75v10.167969c0 2.617187-2.132813 4.75-4.75 4.75-2.621094 0-4.75-2.132813-4.75-4.75zm0 0" data-original="#000000" class="active-path" data-old_color="#ed9d04" fill="#ed9d04"/><path d="m139.351562 432.882812h-5.972656c-4.144531 0-7.5 3.359376-7.5 7.503907 0 4.140625 3.355469 7.5 7.5 7.5h2v27.167969c0 4.140624 3.359375 7.5 7.5 7.5s7.5-3.359376 7.5-7.5v-31.144532c0-6.078125-4.945312-11.027344-11.027344-11.027344zm0 0" data-original="#000000" class="active-path" data-old_color="#ed9d04" fill="#ed9d04"/></g> </svg>
